# xmcd
#
# Track frame offsets:
#	150
#	13858
#	26848
#	39830
#	51058
#	64488
#	79965
#	91118
#	103255
#	115345
#	127500
#	138140
#	149275
#	160760
#	174210
#	187003
#	199410
#	211468
#	224173
#	239525
#	251630
#	267008
#	279563
#	291045
#
# Disc length: 4074 seconds
#
# Revision: 5
# Processed by: cddbd v1.5.2PL0 Copyright (c) Steve Scherf et al.
# Submitted via: EasyCDDAExtractor 8.0.2.1
#
DISCID=680fe818
DTITLE=Nat King Cole - Romantic World of Nat King Cole
DYEAR=1990
DGENRE=Blues
TTITLE0=Blue gardenia
TTITLE1=Smile
TTITLE2=Nature boy
TTITLE3=Vaya con Dios
TTITLE4=If I give my heart to you
TTITLE5=Unforgettable
TTITLE6=This can't be love
TTITLE7=A blossom fell
TTITLE8=Walkin' my baby back home
TTITLE9=Love is a many splendored thing
TTITLE10=Again
TTITLE11=Fascination
TTITLE12=You stepped out of a dream
TTITLE13=An affair to remember
TTITLE14=Answer me my love
TTITLE15=Ramblin' Rose
TTITLE16=When you're smiling
TTITLE17=Darling, Je vous aime beaucoup
TTITLE18=Mona Lisa
TTITLE19=Papa loves mambo
TTITLE20=Too young
TTITLE21=Love is here to stay
TTITLE22=Around the world
TTITLE23=Stardust
EXTD=Issued on "the Entertainers" label 1989
EXTT0=
EXTT1=
EXTT2=
EXTT3=
EXTT4=
EXTT5=
EXTT6=
EXTT7=
EXTT8=
EXTT9=
EXTT10=
EXTT11=
EXTT12=
EXTT13=
EXTT14=
EXTT15=
EXTT16=
EXTT17=
EXTT18=
EXTT19=
EXTT20=
EXTT21=
EXTT22=
EXTT23=
PLAYORDER=
